Coordinates
version=1
nRows=24
nColumns=38
inDegrees=no

Units are S.I. units (second, meters, Newtons, ...)
If the header above contains a line with 'inDegrees', this indicates whether rotational values are in degrees (yes) or radians (no).

endheader
time	pelvis_tilt	pelvis_list	pelvis_rotation	pelvis_tx	pelvis_ty	pelvis_tz	hip_flexion_r	hip_adduction_r	hip_rotation_r	knee_angle_r	ankle_angle_r	subtalar_angle_r	mtp_angle_r	hip_flexion_l	hip_adduction_l	hip_rotation_l	knee_angle_l	ankle_angle_l	subtalar_angle_l	mtp_angle_l	lumbar_extension	lumbar_bending	lumbar_rotation	arm_flex_r	arm_add_r	arm_rot_r	elbow_flex_r	pro_sup_r	wrist_flex_r	wrist_dev_r	arm_flex_l	arm_add_l	arm_rot_l	elbow_flex_l	pro_sup_l	wrist_flex_l	wrist_dev_l
20	2.94038	1.35416	-1.37198	0.666403	0.201268	0.565956	1.09884	-0.241487	0.0526774	2.0944	0.523599	0	0	1.14679	-0.259565	0.132287	2.09212	0.522336	0	0	-0.999082	-0.0168168	0.0447105	1.10894	-0.553961	0.252301	0.935138	1.29172	0	0	0.994048	-0.342949	0.160163	1.28022	0.824807	0	0
20.01	3.00198	1.34233	-1.43333	0.666403	0.200702	0.571178	1.0758	-0.245884	0.0609375	2.0944	0.523599	0	0	1.11853	-0.255739	0.115975	2.07857	0.516557	0	0	-1.02099	-0.0240536	0.0353365	1.11471	-0.551262	0.254704	0.932744	1.28357	0	0	1.01085	-0.337622	0.0186816	1.25223	1.5708	0	0
20.02	3.03942	1.34827	-1.4653	0.664621	0.200791	0.571952	1.07737	-0.263467	0.0805906	2.0944	0.523599	0	0	1.11794	-0.24149	0.105995	2.07391	0.516718	0	0	-1.01765	-0.0246782	0.0264089	1.11395	-0.554159	0.2613	0.93058	1.26509	0	0	1.00348	-0.340258	0.164019	1.26757	0.824062	0	0
20.03	3.11671	1.34726	-1.54628	0.664821	0.200642	0.575237	1.0762	-0.26905	0.0986684	2.093	0.523599	0	0	1.0971	-0.236445	0.0798281	2.05955	0.518954	0	0	-1.02503	-0.0396683	0.0144713	1.11494	-0.551312	0.262193	0.926246	1.26152	0	0	1.00778	-0.340381	0.166325	1.26059	0.824629	0	0
20.04	3.04646	1.35706	-1.47161	0.663909	0.200594	0.575218	1.07812	-0.26275	0.0798597	2.08669	0.523599	0	0	1.11629	-0.240792	0.0976871	2.06088	0.51744	0	0	-1.01447	-0.023143	0.0228362	1.11981	-0.552201	0.273035	0.918997	1.26007	0	0	1.00398	-0.33833	0.164173	1.25502	0.825735	0	0
20.05	3.05543	1.3614	-1.47987	0.663512	0.200387	0.577332	1.07782	-0.262957	0.0802657	2.07924	0.523599	0	0	1.11411	-0.239739	0.0916838	2.05275	0.517151	0	0	-1.01368	-0.0228537	0.0195458	1.12301	-0.550499	0.277115	0.913026	1.25735	0	0	1.00345	-0.338826	0.1645	1.24935	0.829658	0	0
20.06	3.03028	1.36443	-1.46046	0.664786	0.199969	0.580184	1.07772	-0.244195	0.0629419	2.07961	0.523599	0	0	1.11206	-0.253258	0.0910363	2.04366	0.516286	0	0	-1.01463	-0.0230412	0.0243152	1.12799	-0.546981	0.28372	0.90883	1.24702	0	0	1.01145	-0.336049	0.0209397	1.22254	1.5708	0	0
20.07	3.04107	1.36728	-1.4713	0.664552	0.199452	0.582918	1.07567	-0.243284	0.0637093	2.07134	0.523599	0	0	1.10783	-0.252924	0.084327	2.03424	0.513869	0	0	-1.01643	-0.0253086	0.0217141	1.12895	-0.547981	0.289403	0.908965	1.23053	0	0	1.00399	-0.342346	0.165841	1.24209	0.820418	0	0
20.08	3.02096	1.35156	-1.44544	0.663861	0.198992	0.589354	1.04336	-0.241272	0.0517119	2.05589	0.523599	0	0	1.08181	-0.254535	0.0859434	2.01938	0.512563	0	0	-1.03936	-0.0156032	0.0223192	1.13675	-0.547952	0.297392	0.90679	1.22455	0	0	1.00697	-0.342336	0.163113	1.23885	0.821072	0	0
20.09	3.06104	1.3769	-1.49191	0.664032	0.198402	0.58867	1.0752	-0.240656	0.0652456	2.05312	0.523599	0	0	1.10302	-0.252561	0.0705899	2.01373	0.506637	0	0	-1.01619	-0.0268398	0.0162055	1.13695	-0.548264	0.30691	0.903675	1.20764	0	0	1.0039	-0.341932	0.159779	1.23619	0.82345	0	0
20.1	3.11199	1.38394	-1.53644	0.661939	0.198048	0.591318	1.07524	-0.260433	0.0819214	2.03103	0.523599	0	0	1.10052	-0.23634	0.0578801	2.00236	0.503479	0	0	-1.01352	-0.025368	0.00476317	1.1422	-0.550413	0.324003	0.8979	1.1767	0	0	1.00264	-0.33896	0.154087	1.23191	0.829168	0	0
20.11	3.07791	1.38611	-1.50922	0.663453	0.197252	0.595244	1.07123	-0.238372	0.064019	2.03125	0.523599	0	0	1.09548	-0.252315	0.056757	1.98999	0.501365	0	0	-1.01611	-0.026525	0.0133072	1.14105	-0.563953	0.448572	0.957098	0.607381	0	0	1.00556	-0.337684	0.150079	1.22416	0.842	0	0
20.12	3.08784	1.39115	-1.51919	0.663116	0.196689	0.598758	1.06901	-0.237901	0.0633695	2.01943	0.523599	0	0	1.09094	-0.25179	0.048899	1.97677	0.499524	0	0	-1.01535	-0.0267374	0.0131594	1.14623	-0.565309	0.457884	0.947261	0.60703	0	0	1.00887	-0.333414	0.147792	1.21197	0.850263	0	0
20.13	-3.13761	1.39777	-1.57008	0.660875	0.196306	0.60197	1.06741	-0.25963	0.0787265	1.99446	0.523599	0	0	1.08566	-0.234523	0.0347772	1.96233	0.498386	0	0	-1.01222	-0.0248841	0.00306885	1.15187	-0.567435	0.470471	0.936748	0.59895	0	0	1.01148	-0.327996	0.146071	1.19547	0.856031	0	0
20.14	-3.12679	1.40253	-1.58089	0.660585	0.195763	0.605791	1.06414	-0.259382	0.0771388	1.9813	0.523599	0	0	1.07955	-0.23425	0.0267115	1.94742	0.49794	0	0	-1.01096	-0.0249491	0.00357005	1.15729	-0.568297	0.481443	0.925861	0.58887	0	0	1.01774	-0.323924	0.149324	1.17435	0.853845	0	0
20.15	-3.11713	1.40738	-1.59042	0.660322	0.195219	0.609774	1.06047	-0.258997	0.0751091	1.96757	0.523599	0	0	1.07335	-0.234191	0.0187821	1.93201	0.497075	0	0	-1.00939	-0.0247685	0.00408681	1.16341	-0.568102	0.49264	0.912946	0.5801	0	0	1.02555	-0.320309	0.154814	1.14998	0.846386	0	0
20.16	-3.10784	1.41217	-1.59954	0.660093	0.194654	0.613941	1.05633	-0.258574	0.0726655	1.95328	0.523599	0	0	1.06702	-0.234337	0.010897	1.91605	0.495292	0	0	-1.0077	-0.0244886	0.00444902	1.17034	-0.567063	0.504606	0.898254	0.57387	0	0	1.03463	-0.317321	0.161705	1.12373	0.839326	0	0
20.17	-3.09925	1.41734	-1.60772	0.65986	0.194085	0.618196	1.05235	-0.258389	0.0697776	1.93856	0.522013	0	0	1.06121	-0.234198	0.00361604	1.89975	0.493019	0	0	-1.00533	-0.0239002	0.00446655	1.17747	-0.565258	0.517385	0.883387	0.570137	0	0	1.04371	-0.315148	0.168844	1.09826	0.838492	0	0
20.18	-3.09199	1.42352	-1.61437	0.659605	0.19361	0.622542	1.04869	-0.258408	0.0663272	1.92312	0.518062	0	0	1.0563	-0.233783	-0.00276433	1.88313	0.490273	0	0	-1.00128	-0.0211079	0.00425011	1.1865	-0.562082	0.533887	0.867488	0.561337	0	0	1.06044	-0.309086	0.0272857	1.04913	1.5708	0	0
20.19	-3.08446	1.42625	-1.62138	0.659403	0.192943	0.62728	1.04082	-0.25828	0.0630703	1.90772	0.517349	0	0	1.0473	-0.233209	-0.00906382	1.86576	0.487177	0	0	-1.00165	-0.0219311	0.00386373	1.19289	-0.560664	0.546366	0.852798	0.554213	0	0	1.05946	-0.312318	0.179866	1.05562	0.839276	0	0
20.2	-3.07785	1.43025	-1.6275	0.659221	0.192419	0.632029	1.03374	-0.257798	0.06004	1.89282	0.520872	0	0	1.0394	-0.232834	-0.0153944	1.84796	0.483867	0	0	-0.999887	-0.0209408	0.00327934	1.19951	-0.556641	0.557818	0.836662	0.550978	0	0	1.06548	-0.31089	0.182414	1.03712	0.84169	0	0
20.21	-3.07175	1.4332	-1.63348	0.659105	0.191959	0.637089	1.02519	-0.257359	0.0561549	1.87617	0.520677	0	0	1.02923	-0.232762	-0.0223047	1.82898	0.48154	0	0	-0.999081	-0.0201666	0.00300996	1.20602	-0.552595	0.569298	0.820237	0.545934	0	0	1.07114	-0.309313	0.185002	1.01846	0.845083	0	0
20.22	-3.131	1.41856	-1.56812	0.658831	0.192053	0.64545	0.98645	-0.2556	0.0386032	1.85299	0.516742	0	0	0.997737	-0.236003	-0.0201408	1.80589	0.481635	0	0	-1.01814	-0.00910009	0.00664868	1.21457	-0.547851	0.580645	0.802421	0.541355	0	0	1.07803	-0.307789	0.187436	1.00059	0.84887	0	0
20.23	-3.12641	1.42354	-1.57246	0.658622	0.191886	0.650459	0.979717	-0.255805	0.034375	1.83548	0.512239	0	0	0.989223	-0.235107	-0.0266755	1.78664	0.479392	0	0	-1.01359	-0.00638768	0.00624636	1.22196	-0.541605	0.59846	0.78255	0.534156	0	0	1.08967	-0.301503	0.0378721	0.95971	1.5708	0	0
